<svg xmlns="http://www.w3.org/2000/svg" width="251.613" height="69.355"><path fill="#ffffff" d="M108.773 28.027l-.011-.001c-.978 0-1.855.185-2.629.553a5.537 5.537 0 0 0-1.958 1.541c-.531.659-.932 1.465-1.204 2.419-.272.954-.408 2.007-.408 3.158 0 1.078.122 2.069.366 2.972.245.903.623 1.691 1.135 2.363a5.228 5.228 0 0 0 1.91 1.562c.761.369 1.672.553 2.732.553.023 0 .044-.004.067-.005v19.604h1.443V8.619h-1.443v19.408zm-.121 13.075c-.469 0-.906-.081-1.31-.242a3.409 3.409 0 0 1-1.076-.678 3.043 3.043 0 0 1-.738-1.078 3.602 3.602 0 0 1-.269-1.403v-4.243c0-.562.094-1.055.283-1.479.188-.423.443-.778.765-1.064.322-.285.681-.5 1.076-.643a3.644 3.644 0 0 1 1.242-.214c.05 0 .099.007.149.009v11.027c-.042.001-.08.008-.122.008zM131.047 42.802h2.543V30.57h4.396v-2.198h-6.939zM124.233 23.548h-2.543v4.824h-2.405v2.17h2.405v12.26h5.833v-2.184h-3.29V30.542h3.29v-2.17h-3.29zM200.79 29.215a3.627 3.627 0 0 0-1.432-.905 5.383 5.383 0 0 0-1.764-.284c-1.071 0-1.971.284-2.7.85a4.627 4.627 0 0 0-1.551 2.122c-.321-1.023-.85-1.774-1.585-2.253s-1.58-.719-2.535-.719c-1.014 0-1.857.256-2.53.768a4.577 4.577 0 0 0-1.492 1.955v-2.377h-2.544v14.43h2.544v-8.431c0-.627.085-1.205.255-1.735.171-.53.408-.988.712-1.375s.65-.684 1.037-.892a2.625 2.625 0 0 1 1.258-.311c.939 0 1.612.302 2.017.906.406.603.609 1.435.609 2.494v9.344h2.543v-8.431c0-.627.083-1.205.249-1.735.166-.53.402-.988.707-1.375a3.314 3.314 0 0 1 1.039-.892 2.636 2.636 0 0 1 1.26-.311c.952 0 1.631.302 2.037.906.406.603.61 1.435.61 2.494v9.344h2.543v-9.62c0-.931-.113-1.721-.339-2.37-.226-.65-.542-1.182-.948-1.597zM151.235 30.038a5.31 5.31 0 0 0-1.91-1.473c-.77-.359-1.672-.539-2.708-.539-.996 0-1.877.189-2.643.567a5.843 5.843 0 0 0-1.957 1.555c-.54.659-.946 1.456-1.218 2.391-.272.936-.408 1.951-.408 3.048 0 1.115.126 2.133.38 3.055.254.921.641 1.713 1.163 2.377a5.489 5.489 0 0 0 1.951 1.562c.779.377 1.69.566 2.732.566.77 0 1.503-.115 2.2-.345a6.33 6.33 0 0 0 1.876-.982 5.153 5.153 0 0 0 1.354-1.541c.348-.603.55-1.292.604-2.066h-2.53c-.092 1.004-.469 1.737-1.131 2.198s-1.444.691-2.345.691c-.451 0-.888-.072-1.311-.214a3.578 3.578 0 0 1-1.144-.636 3.047 3.047 0 0 1-.808-1.03c-.197-.405-.296-.871-.296-1.396v-1.534h9.675v-1.355c0-.967-.128-1.87-.385-2.709a6.405 6.405 0 0 0-1.141-2.19zm-1.086 4.222h-7.063v-.802c0-.525.094-.999.283-1.423.188-.424.448-.783.779-1.078s.708-.519 1.131-.671c.423-.152.869-.228 1.338-.228s.918.076 1.345.228c.428.152.805.376 1.131.671.327.295.584.654.773 1.078.188.424.283.898.283 1.423v.802zM216.736 30.038a5.31 5.31 0 0 0-1.91-1.473c-.77-.359-1.672-.539-2.708-.539-.996 0-1.877.189-2.643.567a5.857 5.857 0 0 0-1.958 1.555c-.539.659-.945 1.456-1.217 2.391-.272.936-.408 1.951-.408 3.048 0 1.115.126 2.133.38 3.055.254.921.641 1.713 1.163 2.377a5.489 5.489 0 0 0 1.951 1.562c.779.377 1.69.566 2.732.566.77 0 1.503-.115 2.2-.345a6.33 6.33 0 0 0 1.876-.982 5.153 5.153 0 0 0 1.354-1.541c.348-.603.55-1.292.604-2.066h-2.53c-.092 1.004-.469 1.737-1.131 2.198-.662.461-1.444.691-2.345.691-.451 0-.888-.072-1.311-.214a3.594 3.594 0 0 1-1.145-.636 3.057 3.057 0 0 1-.807-1.03c-.197-.405-.296-.871-.296-1.396v-1.534h9.675v-1.355c0-.967-.128-1.87-.385-2.709a6.405 6.405 0 0 0-1.141-2.19zm-1.086 4.222h-7.063v-.802c0-.525.094-.999.283-1.423.188-.424.448-.783.779-1.078s.708-.519 1.131-.671c.423-.152.869-.228 1.338-.228s.918.076 1.345.228c.428.152.805.376 1.131.671.327.295.584.654.773 1.078.188.424.283.898.283 1.423v.802zM245.173 30.542v-2.17h-3.29v-4.824h-2.543v4.824h-2.405v2.17h2.405v12.26h5.833v-2.184h-3.29V30.542zM175.843 23.548H173.3v4.824h-2.405v2.17h2.405v12.26h5.833v-2.184h-3.29V30.542h3.29v-2.17h-3.29zM232.391 29.215a3.681 3.681 0 0 0-1.474-.905 6.015 6.015 0 0 0-1.902-.284c-1.096 0-1.99.242-2.681.726-.691.484-1.235 1.15-1.631 1.997v-2.377h-2.543v14.43h2.543v-8.431c0-.627.09-1.205.27-1.735.179-.53.43-.988.753-1.375a3.35 3.35 0 0 1 1.133-.892 3.29 3.29 0 0 1 1.438-.311c1.096 0 1.847.302 2.253.906.405.603.608 1.435.608 2.494v9.344h2.543v-9.62c0-.931-.115-1.721-.345-2.37-.23-.65-.551-1.182-.965-1.597zM167.246 32.947c0-.848-.136-1.583-.407-2.205a3.95 3.95 0 0 0-1.148-1.527 5.026 5.026 0 0 0-1.741-.891 7.58 7.58 0 0 0-2.163-.298c-.773 0-1.494.113-2.165.339a5.366 5.366 0 0 0-1.751.961 4.764 4.764 0 0 0-1.186 1.472 4.004 4.004 0 0 0-.441 1.873h2.543c0-.931.27-1.599.809-2.005.539-.405 1.26-.608 2.163-.608.451 0 .862.044 1.23.132.369.087.684.239.947.456.263.216.465.509.608.877.143.369.214.834.214 1.396v1.161l-4.698.436c-1.438.129-2.516.598-3.235 1.407-.719.81-1.078 1.781-1.078 2.912 0 .571.103 1.12.311 1.645.207.525.499.977.877 1.354.424.434.926.761 1.507.982.58.221 1.23.331 1.949.331 1.078 0 2.004-.246 2.778-.739s1.359-1.251 1.755-2.274h.111l.055 2.668h4.312v-2.184h-2.156v-7.671zm-2.488 3.74c0 1.301-.331 2.362-.995 3.183-.663.821-1.571 1.232-2.723 1.232-.811 0-1.446-.155-1.907-.463-.461-.309-.691-.795-.691-1.459v-1.272c0-.415.067-.742.2-.982.134-.24.463-.378.988-.415l5.128-.474v.65zM49.697 30.148c-.533-.659-1.205-1.177-2.015-1.555s-1.763-.567-2.858-.567c-1.098 0-2.053.189-2.865.567a5.68 5.68 0 0 0-2.027 1.555c-.539.659-.94 1.456-1.203 2.391-.263.935-.395 1.951-.395 3.048 0 1.115.132 2.133.395 3.054.263.922.664 1.714 1.203 2.378a5.653 5.653 0 0 0 2.027 1.562c.812.377 1.767.566 2.865.566 1.086 0 2.036-.189 2.851-.566a5.55 5.55 0 0 0 2.022-1.562c.534-.664.935-1.456 1.202-2.378.267-.921.4-1.939.4-3.054 0-1.097-.133-2.113-.4-3.048s-.668-1.732-1.202-2.391zm-1.093 7.678c0 .488-.104.935-.311 1.341-.207.405-.48.748-.821 1.029-.34.281-.74.503-1.2.664-.46.161-.943.242-1.448.242a4.394 4.394 0 0 1-1.463-.242 3.872 3.872 0 0 1-1.2-.664 3.206 3.206 0 0 1-.821-1.029 2.909 2.909 0 0 1-.31-1.341v-4.478c0-.489.103-.935.31-1.341.207-.405.48-.751.821-1.037.34-.285.742-.509 1.207-.67.464-.161.95-.242 1.456-.242.505 0 .988.081 1.448.242.46.161.86.385 1.2.67.341.286.614.632.821 1.037.207.406.311.852.311 1.341v4.478zM18.984 32.947c0-.848-.136-1.583-.408-2.205a3.949 3.949 0 0 0-1.147-1.527 5.026 5.026 0 0 0-1.741-.891 7.556 7.556 0 0 0-2.164-.298c-.772 0-1.493.113-2.164.339s-1.255.546-1.751.961a4.75 4.75 0 0 0-1.186 1.472 4.002 4.002 0 0 0-.441 1.872h2.543c0-.93.27-1.598.809-2.004.539-.405 1.26-.608 2.163-.608.451 0 .861.044 1.23.131.368.088.684.24.947.457.262.216.465.509.608.877.143.369.214.834.214 1.396v1.161l-4.699.436c-1.437.129-2.516.598-3.234 1.407-.719.81-1.079 1.78-1.079 2.912 0 .571.104 1.119.311 1.645.208.525.5.976.878 1.354.424.433.926.76 1.507.982.58.221 1.23.331 1.948.331 1.079 0 2.005-.246 2.779-.739s1.359-1.251 1.755-2.274h.111l.055 2.668h4.312v-2.184h-2.156v-7.671zm-2.488 3.74c0 1.301-.332 2.362-.995 3.183-.664.821-1.571 1.232-2.723 1.232-.811 0-1.447-.155-1.907-.464-.461-.308-.691-.795-.691-1.458v-1.273c0-.414.066-.741.2-.981.133-.24.463-.378.988-.415l5.128-.474v.65zM31.688 40.341c-.625.507-1.407.761-2.345.761-.469 0-.905-.081-1.31-.242a3.42 3.42 0 0 1-1.076-.678 3.043 3.043 0 0 1-.738-1.078 3.602 3.602 0 0 1-.269-1.403v-4.243c0-.562.094-1.055.283-1.479a3.08 3.08 0 0 1 .765-1.064c.322-.285.681-.5 1.076-.643a3.648 3.648 0 0 1 1.242-.214c.414 0 .813.048 1.2.145.386.097.731.263 1.034.498.303.235.549.548.738.94.189.391.31.877.366 1.458h2.543c-.074-.875-.272-1.633-.594-2.274a4.784 4.784 0 0 0-1.243-1.582 4.962 4.962 0 0 0-1.767-.919 7.491 7.491 0 0 0-2.139-.298c-.978 0-1.854.185-2.629.553a5.537 5.537 0 0 0-1.958 1.541c-.531.659-.932 1.465-1.204 2.419-.272.954-.408 2.007-.408 3.158 0 1.078.122 2.069.367 2.972.244.903.622 1.691 1.134 2.363a5.228 5.228 0 0 0 1.91 1.562c.761.369 1.672.553 2.733.553.736 0 1.437-.103 2.105-.311a5.355 5.355 0 0 0 1.795-.953 5.437 5.437 0 0 0 1.332-1.618c.359-.649.584-1.416.676-2.301h-2.543c-.092 1.078-.45 1.871-1.076 2.377zM77.636 34.656l-2.433-.509c-.716-.148-1.235-.381-1.556-.697-.322-.317-.482-.759-.482-1.326 0-.614.274-1.112.822-1.494.548-.381 1.219-.572 2.011-.572.774 0 1.44.196 1.998.588.557.391.854 1.066.891 2.024h2.543c-.018-.81-.182-1.508-.49-2.094a4.218 4.218 0 0 0-1.23-1.444 5.268 5.268 0 0 0-1.742-.836 7.445 7.445 0 0 0-1.997-.27c-.793 0-1.509.109-2.15.325a5.661 5.661 0 0 0-1.672.878 3.817 3.817 0 0 0-1.092 1.306 3.5 3.5 0 0 0-.38 1.596c0 1.134.32 2.035.961 2.703.64.668 1.555 1.126 2.743 1.375l2.378.483c.967.185 1.64.452 2.018.802.377.35.566.816.566 1.396 0 .719-.313 1.267-.94 1.645-.626.378-1.363.567-2.211.567-.885 0-1.652-.237-2.301-.712-.65-.475-.993-1.191-1.03-2.149h-2.543c.018.81.179 1.522.482 2.135.304.613.72 1.124 1.248 1.534.529.41 1.145.719 1.848.926a7.96 7.96 0 0 0 2.268.311c.848 0 1.622-.115 2.322-.345.7-.231 1.307-.532 1.818-.906.511-.373.903-.82 1.175-1.34a3.614 3.614 0 0 0 .407-1.693c0-1.16-.348-2.076-1.045-2.747-.697-.671-1.765-1.158-3.205-1.46zM96.054 28.372h2.543v14.43h-2.543zM64.001 36.803c0 1.263-.316 2.294-.947 3.096s-1.485 1.203-2.564 1.203c-1.078 0-1.819-.307-2.225-.92-.405-.612-.608-1.439-.608-2.481v-9.329h-2.543v9.62c0 .921.117 1.709.352 2.363.235.655.56 1.189.975 1.604.414.414.91.716 1.486.905a5.92 5.92 0 0 0 1.859.283c1.087 0 1.962-.242 2.626-.725.663-.484 1.193-1.15 1.589-1.998v2.378h2.543v-14.43h-2.543v8.431zM95.998 23.548h2.654v2.668h-2.654zM89.24 23.548h-2.544v4.824h-2.405v2.17h2.405v12.26h5.833v-2.184H89.24V30.542h3.289v-2.17H89.24z"/></svg>