<svg version="1.1" id="Layer_1" xmlns="http://www.w3.org/2000/svg" x="0" y="0" viewBox="0 0 23 28" xml:space="preserve"><style>.st0{fill:#fff}</style><path class="st0" d="M11.1 22c-3.4 0-6.7-1.7-8.6-4.7-1.4-2.3-1.9-5-1.3-7.6s2.2-4.9 4.5-6.3c4.7-2.9 11-1.5 13.9 3.2 1.4 2.3 1.9 5 1.3 7.6-.6 2.6-2.2 4.9-4.5 6.3-1.6 1.1-3.5 1.5-5.3 1.5zm-7.7-5.2c2.7 4.3 8.3 5.5 12.5 2.9 2.1-1.3 3.5-3.3 4-5.7.5-2.4.1-4.8-1.1-6.9-2.7-4.3-8.3-5.6-12.5-2.9-2.1 1.3-3.5 3.3-4 5.7s-.2 4.8 1.1 6.9z"/><path transform="rotate(-32.001 18.146 23.246)" class="st0" d="M17.6 19.4h1V27h-1z"/></svg>